<?xml version="1.0" standalone="no"?>
<!DOCTYPE svg PUBLIC "-//W3C//DTD SVG 20010904//EN"
 "http://www.w3.org/TR/2001/REC-SVG-20010904/DTD/svg10.dtd">
<svg version="1.0" xmlns="http://www.w3.org/2000/svg"
 width="356.000000pt" height="356.000000pt" viewBox="0 0 356.000000 356.000000"
 preserveAspectRatio="xMidYMid meet">
<metadata>
Created by potrace 1.16, written by Peter Selinger 2001-2019
</metadata>
<g transform="translate(0.000000,356.000000) scale(0.100000,-0.100000)"
fill="#d6edf9" stroke="none">
<path d="M1570 3454 c-228 -40 -358 -81 -535 -169 -170 -85 -294 -175 -430
-310 -230 -230 -384 -513 -457 -837 -20 -92 -23 -129 -23 -338 0 -262 9 -329
71 -519 162 -495 546 -888 1039 -1061 185 -65 338 -90 551 -90 628 -1 1198
349 1484 911 119 233 171 442 178 709 7 294 -40 517 -163 775 -99 206 -277
430 -460 576 -137 110 -345 222 -512 278 -179 61 -267 74 -503 77 -118 1 -226
0 -240 -2z m335 -629 c336 -34 647 -256 800 -570 61 -125 89 -221 106 -369 21
-181 -25 -406 -120 -582 -262 -485 -859 -680 -1358 -443 -248 118 -451 350
-536 614 -86 265 -67 526 58 780 158 324 463 535 826 574 82 8 102 8 224 -4z"/>
</g>
</svg>
