<?xml version="1.0" encoding="UTF-8"?>
<!DOCTYPE svg PUBLIC "-//W3C//DTD SVG 1.1//EN" "http://www.w3.org/Graphics/SVG/1.1/DTD/svg11.dtd">
<svg xmlns="http://www.w3.org/2000/svg" version="1.1" width="137px" height="137px" style="shape-rendering:geometricPrecision; text-rendering:geometricPrecision; image-rendering:optimizeQuality; fill-rule:evenodd; clip-rule:evenodd" xmlns:xlink="http://www.w3.org/1999/xlink">
<g><path style="opacity:0.153" fill="#d6edf9" d="M 46.5,-0.5 C 49.8333,-0.5 53.1667,-0.5 56.5,-0.5C 80.7404,12.2894 105.074,25.1227 129.5,38C 132.481,40.4639 134.814,43.2972 136.5,46.5C 136.5,49.8333 136.5,53.1667 136.5,56.5C 123.711,80.7404 110.877,105.074 98,129.5C 95.5361,132.481 92.7028,134.814 89.5,136.5C 86.1667,136.5 82.8333,136.5 79.5,136.5C 55.2596,123.711 30.9263,110.877 6.5,98C 3.51895,95.5361 1.18562,92.7028 -0.5,89.5C -0.5,86.1667 -0.5,82.8333 -0.5,79.5C 12.2894,55.2596 25.1227,30.9263 38,6.5C 40.4639,3.51895 43.2972,1.18562 46.5,-0.5 Z"/></g>
</svg>
